<svg id="logo-bihua" xmlns="http://www.w3.org/2000/svg" width="122" height="31.528" viewBox="0 0 122 31.528">
  <g id="Calque_1" data-name="Calque 1">
    <g id="propal_1">
      <path id="Tracé_1" data-name="Tracé 1" d="M0,37.745V16.16H11.729q9.891,0,9.891,5.562,0,3.363-3.916,4.6,4.823,1.414,4.829,5.137a5.166,5.166,0,0,1-2.618,4.689q-2.618,1.6-7.657,1.6ZM11.764,24.794a7.366,7.366,0,0,0,3.491-.64,2.1,2.1,0,0,0,1.117-1.961,1.9,1.9,0,0,0-1.164-1.833,9.169,9.169,0,0,0-3.747-.582h-6.4v5.015ZM11.9,34.1a9.123,9.123,0,0,0,4.073-.675,2.327,2.327,0,0,0,1.286-2.193,2.409,2.409,0,0,0-1.286-2.24,8.65,8.65,0,0,0-4.073-.721H5.1V34.1Z" transform="translate(0 -6.758)" fill="#fff"/>
      <path id="Tracé_2" data-name="Tracé 2" d="M46.83,37.745V16.16h5.411V37.745Z" transform="translate(-19.584 -6.758)" fill="#fff"/>
      <path id="Tracé_3" data-name="Tracé 3" d="M84.945,37.745V28.7H71.761v9.041H66.35V16.16h5.411V24.5H84.945V16.16H90.35V37.745Z" transform="translate(-27.747 -6.758)" fill="#fff"/>
      <path id="Tracé_4" data-name="Tracé 4" d="M135.626,16.16h5.388V28.675q0,4.835-2.909,7.226T129.2,38.286q-5.987,0-8.908-2.385t-2.909-7.226V16.16h5.411v12.8a5,5,0,0,0,1.553,4.073,9.739,9.739,0,0,0,9.734,0,5.016,5.016,0,0,0,1.559-4.073Z" transform="translate(-49.087 -6.758)" fill="#fff"/>
      <path id="Tracé_5" data-name="Tracé 5" d="M183.686,37.745l-2.4-4.9H169.112l-2.362,4.9h-5.58L172.224,16.16h6.121L189.4,37.745ZM175.2,20.361l-4.236,8.646h8.524Z" transform="translate(-67.399 -6.758)" fill="#fff"/>
      <rect id="Rectangle_1" data-name="Rectangle 1" width="23.645" height="2.746" transform="translate(68.281)" fill="#fff"/>
    </g>
  </g>
</svg>
